HIERARCHY
ROOT Hips
{
	OFFSET 56.877701 -32.693596 43.373703
	CHANNELS 6 Xposition Yposition Zposition Zrotation Xrotation Yrotation
	JOINT Chest
	{
		OFFSET -0.779999 1.005800 5.403099
		CHANNELS 6 Xposition Yposition Zposition Zrotation Xrotation Yrotation
		JOINT Chest2
		{
			OFFSET 0.000000 0.000000 4.236801
			CHANNELS 6 Xposition Yposition Zposition Zrotation Xrotation Yrotation
			JOINT Neck
			{
				OFFSET 0.000000 0.000000 9.874401
				CHANNELS 6 Xposition Yposition Zposition Zrotation Xrotation Yrotation
				JOINT Head
				{
					OFFSET 0.000000 0.000002 2.173893
					CHANNELS 6 Xposition Yposition Zposition Zrotation Xrotation Yrotation
					End Site
					{
						OFFSET 0.000000 0.000000 6.508102
					}
				}
			}
			JOINT LeftCollar
			{
				OFFSET 2.681599 -0.377600 5.432499
				CHANNELS 6 Xposition Yposition Zposition Zrotation Xrotation Yrotation
				JOINT LeftShoulder
				{
					OFFSET 5.161499 0.000000 0.000000
					CHANNELS 6 Xposition Yposition Zposition Zrotation Xrotation Yrotation
					JOINT LeftElbow
					{
						OFFSET 0.000000 0.000000 -10.869099
						CHANNELS 6 Xposition Yposition Zposition Zrotation Xrotation Yrotation
						JOINT LeftWrist
						{
							OFFSET 0.000000 0.000000 -13.344799
							CHANNELS 6 Xposition Yposition Zposition Zrotation Xrotation Yrotation
							End Site
							{
								OFFSET 0.000000 0.000000 -2.173901
							}
						}
					}
				}
			}
			JOINT RightCollar
			{
				OFFSET -2.381901 -1.419600 6.136600
				CHANNELS 6 Xposition Yposition Zposition Zrotation Xrotation Yrotation
				JOINT RightShoulder
				{
					OFFSET -4.550499 0.000000 0.000000
					CHANNELS 6 Xposition Yposition Zposition Zrotation Xrotation Yrotation
					JOINT RightElbow
					{
						OFFSET 0.000000 0.000000 -11.106499
						CHANNELS 6 Xposition Yposition Zposition Zrotation Xrotation Yrotation
						JOINT RightWrist
						{
							OFFSET 0.000000 0.000000 -12.874298
							CHANNELS 6 Xposition Yposition Zposition Zrotation Xrotation Yrotation
							End Site
							{
								OFFSET 0.000000 0.000000 -2.173901
							}
						}
					}
				}
			}
		}
	}
	JOINT LeftHip
	{
		OFFSET 2.431900 0.469601 -2.489399
		CHANNELS 6 Xposition Yposition Zposition Zrotation Xrotation Yrotation
		JOINT LeftKnee
		{
			OFFSET 0.000000 -0.000004 -18.200201
			CHANNELS 6 Xposition Yposition Zposition Zrotation Xrotation Yrotation
			JOINT LeftAnkle
			{
				OFFSET 0.000000 0.000000 -16.279900
				CHANNELS 6 Xposition Yposition Zposition Zrotation Xrotation Yrotation
				End Site
				{
					OFFSET 0.000000 -8.394100 0.000000
				}
			}
		}
	}
	JOINT RightHip
	{
		OFFSET -1.987999 -0.073502 -2.713001
		CHANNELS 6 Xposition Yposition Zposition Zrotation Xrotation Yrotation
		JOINT RightKnee
		{
			OFFSET 0.000000 -0.000004 -19.547802
			CHANNELS 6 Xposition Yposition Zposition Zrotation Xrotation Yrotation
			JOINT RightAnkle
			{
				OFFSET 0.000000 0.000000 -14.881199
				CHANNELS 6 Xposition Yposition Zposition Zrotation Xrotation Yrotation
				End Site
				{
					OFFSET 0.000000 -7.922699 0.000000
				}
			}
		}
	}
}
MOTION
Frames: 4
Frame Time: 0.041667
55.413895 -27.529596 17.093004 4259.033196 53.420860 3.355729 -0.779998 1.005798 5.403099 16.311098 -3.639293 20.930937 0.000006 0.000000 4.236799 -6.708236 -5.763664 -0.776406 0.000010 0.000010 9.874398 68.902942 -2.226787 16.102214 -0.000003 0.000000 2.173893 4.835591 -0.227534 8.509947 2.681599 -0.377590 5.432500 0.537401 3.344499 14.849576 5.161501 0.000011 0.000005 -181.216407 -132.442204 -269.221687 0.000003 -0.000008 -10.869107 76.662528 -63.849640 92.088517 -0.000002 0.000003 -13.344797 -86.496327 2.630874 -85.342592 -2.381898 -1.419592 6.136593 23.602624 20.691076 30.323024 -4.550507 -0.000005 0.000019 -1177.361672 -506.302799 -402.883298 -0.000001 -0.000000 -11.106495 627.709083 -63.395562 621.379738 -0.000005 -0.000010 -12.874294 -297.954763 -10.154690 72.385559 2.431904 0.469597 -2.489402 125.113903 -49.061717 124.475157 0.000005 -0.000002 -18.200203 -180.216317 -11.153082 138.102819 0.000000 -0.000006 -16.279886 20.816646 33.881556 60.636691 -1.987994 -0.073499 -2.713000 -95.632620 -36.380412 -98.299393 -0.000000 0.000002 -19.547794 -1827.423779 165.440282 23.709689 0.000003 0.000007 -14.881199 1768.023536 31.898039 -37.309014
55.429905 -27.508003 17.092604 4258.919542 53.352704 3.403469 -0.780005 1.005801 5.403106 16.228432 -3.659455 20.990595 0.000008 -0.000000 4.236800 -6.596040 -5.760498 -0.770707 0.000007 0.000007 9.874395 68.887977 -2.246308 16.034926 0.000008 -0.000008 2.173891 4.859934 -0.284116 8.503375 2.681605 -0.377598 5.432505 0.315875 3.467613 15.117726 5.161496 0.000004 0.000007 -181.617517 -132.360446 -269.972270 0.000002 -0.000005 -10.869090 76.671127 -64.360668 91.932249 0.000008 0.000002 -13.344801 -85.847500 2.682212 -85.390765 -2.381896 -1.419599 6.136598 23.366437 20.575204 30.124676 -4.550501 -0.000009 0.000013 -1177.286922 -506.544806 -402.862698 0.000005 -0.000017 -11.106491 627.497785 -62.991590 621.181444 -0.000010 -0.000005 -12.874296 -297.587025 -10.269987 72.011887 2.431899 0.469603 -2.489390 125.055450 -48.871868 124.308692 0.000004 -0.000003 -18.200207 -180.379805 -11.253085 138.071209 0.000001 0.000003 -16.279886 20.908635 33.822434 60.942663 -1.988007 -0.073500 -2.712995 -95.495580 -36.578252 -98.267325 0.000002 0.000004 -19.547798 -1827.465743 165.337556 23.626499 0.000000 0.000003 -14.881199 1768.085609 31.964046 -36.991492
55.437202 -27.487396 17.087204 4258.828181 53.329704 3.432903 -0.780001 1.005800 5.403091 16.098799 -3.792718 21.085916 0.000010 -0.000004 4.236799 -6.462153 -5.787578 -0.769426 0.000006 0.000012 9.874403 68.886952 -2.289925 15.817782 0.000007 0.000001 2.173884 4.919246 -0.286112 8.530959 2.681596 -0.377598 5.432504 0.112325 3.549968 15.266665 5.161505 0.000002 0.000012 -181.812710 -132.389229 -270.550623 0.000005 -0.000003 -10.869102 76.697376 -64.772494 91.803712 0.000004 0.000006 -13.344797 -85.314582 2.754442 -85.457305 -2.381910 -1.419598 6.136595 23.294398 20.608861 29.788214 -4.550501 -0.000008 0.000019 -1180.485855 -509.472881 -404.667152 0.000000 -0.000012 -11.106493 623.446390 -63.229424 620.920913 0.000000 -0.000002 -12.874299 -297.037933 -10.084861 73.517588 2.431900 0.469600 -2.489411 125.089464 -48.765211 124.259460 0.000000 0.000005 -18.200205 -180.453243 -11.322491 138.048573 -0.000003 -0.000002 -16.279888 20.958535 33.778670 61.174323 -1.988001 -0.073495 -2.713006 -95.425625 -36.565602 -98.276675 0.000001 0.000001 -19.547798 -1827.362580 165.312995 23.560572 0.000000 0.000006 -14.881201 1768.100143 32.004508 -36.772550
55.444397 -27.471195 17.079807 4258.779659 53.342616 3.419759 -0.780006 1.005799 5.403105 15.938118 -3.952776 21.223141 -0.000002 -0.000004 4.236801 -6.320549 -5.832104 -0.768035 -0.000005 0.000006 9.874396 68.895428 -2.349357 15.581067 0.000007 0.000001 2.173894 4.971718 -0.169689 8.626912 2.681593 -0.377596 5.432499 -0.087018 4.872520 15.284085 5.161511 0.000006 0.000006 -182.293145 -131.241757 -271.039993 -0.000013 0.000000 -10.869094 76.584282 -64.853732 91.533120 -0.000002 0.000010 -13.344807 -85.118835 2.863190 -85.553474 -2.381908 -1.419599 6.136588 23.163787 20.574425 29.325257 -4.550498 -0.000000 0.000011 -1180.197129 -509.814281 -404.483393 -0.000004 -0.000011 -11.106495 623.504255 -63.221638 620.776605 -0.000001 0.000000 -12.874292 -296.848245 -10.105035 73.312607 2.431896 0.469601 -2.489397 125.207831 -48.814846 124.375327 0.000005 -0.000001 -18.200207 -180.383479 -11.312727 138.086180 0.000001 -0.000005 -16.279890 20.937636 33.743621 61.300272 -1.988002 -0.073497 -2.712996 -95.415489 -36.561490 -98.323544 -0.000003 0.000003 -19.547794 -1827.355149 165.367581 23.535876 0.000004 0.000007 -14.881203 1768.046704 32.000314 -36.689792
